<?xml version="1.0" encoding="UTF-8"?>
<svg version="1.1" xmlns="http://www.w3.org/2000/svg" width="512" height="512">
<path d="M0 0 C168.96 0 337.92 0 512 0 C512 168.96 512 337.92 512 512 C343.04 512 174.08 512 0 512 C0 343.04 0 174.08 0 0 Z " fill="#1D1D1D" transform="translate(0,0)"/>
<path d="M0 0 C4.41667376 1.7666695 7.17232972 3.4089998 10.9375 6.1875 C17.16745877 10.72851201 23.49748206 15.10643773 29.875 19.4375 C30.82318604 20.08195068 31.77137207 20.72640137 32.74829102 21.39038086 C34.62504423 22.66586453 36.50191341 23.94117759 38.37890625 25.21630859 C43.97695903 29.02586277 49.55100959 32.87033227 55.12744141 36.71142578 C56.9938055 37.99573734 58.86185805 39.27755351 60.73046875 40.55859375 C68.55174943 45.92290657 76.344767 51.32631111 84.125 56.75 C93.67817169 63.40731212 103.28220169 69.98661614 112.91015625 76.53515625 C119.32193808 80.89631778 125.71051677 85.29090487 132.09667969 89.68945312 C134.05606276 91.03860247 136.01618306 92.38667387 137.9765625 93.734375 C138.64083252 94.19110596 139.30510254 94.64783691 139.98950195 95.1184082 C141.31836595 96.03158869 142.64762356 96.94419668 143.97729492 97.85620117 C147.45771363 100.24472382 150.92840373 102.64596787 154.38671875 105.06640625 C155.10666016 105.56785156 155.82660156 106.06929688 156.56835938 106.5859375 C157.94357055 107.54414915 159.31613722 108.50617162 160.68554688 109.47265625 C162.4344516 110.68802747 164.20852495 111.84878091 166 113 C166.7940625 113.54914063 167.588125 114.09828125 168.40625 114.6640625 C173.03814498 115.26397661 176.2212232 111.97214398 179.8125 109.3125 C181.52334549 108.09231889 183.23428443 106.87226881 184.9453125 105.65234375 C185.79770508 105.03472168 186.65009766 104.41709961 187.52832031 103.78076172 C191.03997408 101.25073381 194.61139741 98.812581 198.1875 96.375 C199.49394053 95.47721836 200.79993159 94.57878231 202.10546875 93.6796875 C206.06952103 90.95197322 210.03468709 88.22588124 214 85.5 C215.33333808 84.58334024 216.66667142 83.66667358 218 82.75 C258 55.25 258 55.25 259.99829102 53.8762207 C261.33737791 52.95556784 262.67640747 52.03483159 264.01538086 51.11401367 C267.26023002 48.88266308 270.50591802 46.65256052 273.75390625 44.42578125 C281.56706041 39.0662281 289.35255522 33.66843757 297.125 28.25 C305.95450763 22.09518604 314.82391817 16.00203236 323.73095703 9.95996094 C324.58286621 9.38149414 325.43477539 8.80302734 326.3125 8.20703125 C327.11300781 7.66385254 327.91351563 7.12067383 328.73828125 6.56103516 C330.85389803 5.10083937 332.92865485 3.59623035 335 2.07421875 C338 0 338 0 340 0 C340 76.89 340 153.78 340 233 C332.68570473 228.34544846 325.4559186 223.65121103 318.3125 218.75 C317.35843262 218.09741211 316.40436523 217.44482422 315.42138672 216.77246094 C312.61279976 214.85042408 309.80602537 212.92577413 307 211 C306.23896973 210.47792969 305.47793945 209.95585937 304.69384766 209.41796875 C300.76113504 206.71917313 296.83140939 204.01606654 292.90332031 201.31054688 C289.60353044 199.03844939 286.30163099 196.76942087 283 194.5 C281.66665718 193.58334714 280.33332383 192.66668049 279 191.75 C278.34 191.29625 277.68 190.8425 277 190.375 C275 189 273 187.625 271 186.25 C270.01084595 185.56997925 270.01084595 185.56997925 269.00170898 184.8762207 C267.66262209 183.95556784 266.32359253 183.03483159 264.98461914 182.11401367 C261.73976998 179.88266308 258.49408198 177.65256052 255.24609375 175.42578125 C247.43293873 170.06622751 239.64752861 164.66831807 231.875 159.25 C221.46595334 151.99625488 210.99276549 144.8400506 200.50244141 137.70458984 C197.42595584 135.60897792 194.35425248 133.50652061 191.28613281 131.39868164 C189.95731405 130.48587556 188.62728862 129.57482288 187.29589844 128.66577148 C184.47839907 126.73658963 181.70748693 124.781087 178.97265625 122.734375 C178.09480469 122.07953125 177.21695313 121.4246875 176.3125 120.75 C175.58675781 120.18796875 174.86101562 119.6259375 174.11328125 119.046875 C171.26431096 117.63555515 170.03486756 118.13222912 167 119 C164.33147105 120.44864976 164.33147105 120.44864976 161.6484375 122.31640625 C160.63136719 122.99896484 159.61429688 123.68152344 158.56640625 124.38476562 C157.51324219 125.10341797 156.46007812 125.82207031 155.375 126.5625 C154.34503906 127.25408203 153.31507813 127.94566406 152.25390625 128.65820312 C146.30457248 132.67306799 140.46845112 136.81767104 134.6796875 141.05981445 C130.28858104 144.23912596 125.80187404 147.27431025 121.3125 150.3125 C119.37874075 151.62605847 117.44514805 152.93986217 115.51171875 154.25390625 C114.1047876 155.20934326 114.1047876 155.20934326 112.66943359 156.18408203 C108.97968772 158.6940811 105.30060496 161.21935407 101.625 163.75 C100.98860596 164.18803955 100.35221191 164.6260791 99.6965332 165.07739258 C98.43204248 165.9479539 97.16763718 166.81863933 95.90332031 167.68945312 C92.60353044 169.96155061 89.30163099 172.23057913 86 174.5 C84.66665718 175.41665286 83.33332383 176.33331951 82 177.25 C58 193.75 58 193.75 56.00170898 195.1237793 C54.66262209 196.04443216 53.32359253 196.96516841 51.98461914 197.88598633 C48.73976998 200.11733692 45.49408198 202.34743948 42.24609375 204.57421875 C40.97650515 205.44522891 39.70697459 206.31632367 38.4375 207.1875 C37.48435913 207.84117554 37.48435913 207.84117554 36.51196289 208.50805664 C32.36880058 211.35512959 28.24286081 214.22581521 24.125 217.109375 C23.10220947 217.82456299 22.07941895 218.53975098 21.02563477 219.27661133 C19.00869742 220.68794127 16.99348097 222.10173464 14.98022461 223.51831055 C14.04702393 224.170979 13.11382324 224.82364746 12.15234375 225.49609375 C11.32726318 226.07544678 10.50218262 226.6547998 9.65209961 227.25170898 C6.52559213 229.31273449 3.25132135 231.14210209 0 233 C0 156.11 0 79.22 0 0 Z " fill="#FCA757" transform="translate(86,106)"/>
<path d="M0 0 C4.41667376 1.7666695 7.17232972 3.4089998 10.9375 6.1875 C17.16745877 10.72851201 23.49748206 15.10643773 29.875 19.4375 C30.82318604 20.08195068 31.77137207 20.72640137 32.74829102 21.39038086 C34.62504423 22.66586453 36.50191341 23.94117759 38.37890625 25.21630859 C43.97695903 29.02586277 49.55100959 32.87033227 55.12744141 36.71142578 C56.9938055 37.99573734 58.86185805 39.27755351 60.73046875 40.55859375 C68.55174943 45.92290657 76.344767 51.32631111 84.125 56.75 C93.67817169 63.40731212 103.28220169 69.98661614 112.91015625 76.53515625 C119.32193808 80.89631778 125.71051677 85.29090487 132.09667969 89.68945312 C134.72680482 91.50044745 137.35829518 93.3094521 139.98999023 95.11816406 C141.31794983 96.03110604 142.64559263 96.94450902 143.97290039 97.85839844 C147.46093021 100.25930049 150.95471495 102.65122711 154.45703125 105.03125 C155.18599609 105.52818359 155.91496094 106.02511719 156.66601562 106.53710938 C158.06266091 107.48896316 159.4610134 108.4383184 160.86132812 109.38476562 C163.82702022 111.40944999 166.51801331 113.40831482 169 116 C167.84177734 115.97268799 166.68355469 115.94537598 165.49023438 115.91723633 C161.11362984 115.82913696 156.73921414 115.81586139 152.36181641 115.82299805 C150.48240772 115.81610378 148.60295228 115.79001464 146.72412109 115.74291992 C132.81046005 115.41234976 124.43610183 117.67107582 113.6986084 126.60873413 C111.29584494 128.57674677 108.74950812 130.30532317 106.1796875 132.046875 C104.41133105 133.28106765 102.64310263 134.51544376 100.875 135.75 C92.38166447 141.67045426 83.8469891 147.52631808 75.28417969 153.34570312 C67.55774532 158.60354862 59.87410525 163.92143418 52.22094727 169.28540039 C47.91980024 172.29646266 43.61121121 175.27792996 39.20703125 178.13671875 C38.47919434 178.6152832 37.75135742 179.09384766 37.00146484 179.58691406 C35.69236595 180.44354229 34.37451555 181.28705886 33.04541016 182.11230469 C23.80214286 188.20300775 19.24014114 199.65602204 13.9375 209.0625 C4.75918608 225.30792429 4.75918608 225.30792429 1 231 C0.67 231 0.34 231 0 231 C0 154.77 0 78.54 0 0 Z " fill="#FDA757" transform="translate(86,106)"/>
<path d="M0 0 C0 45.87 0 91.74 0 139 C-6.81048246 134.66605662 -13.54997238 130.32875701 -20.1875 125.75 C-21.00573242 125.18772705 -21.82396484 124.6254541 -22.66699219 124.04614258 C-24.33045096 122.90279708 -25.99338378 121.75868596 -27.65576172 120.61376953 C-29.75952513 119.16554248 -31.86543655 117.72053488 -33.97265625 116.27734375 C-41.71542146 110.9709873 -49.42459774 105.61762768 -57.125 100.25 C-65.86814772 94.15604858 -74.64905229 88.12052779 -83.46728516 82.13574219 C-89.34804363 78.14173175 -95.18640725 74.09116169 -101 70 C-96.91003711 65.56784898 -92.3786298 62.33983238 -87.375 59 C-85.66787311 57.8464957 -83.96084464 56.69284572 -82.25390625 55.5390625 C-81.38266113 54.95286133 -80.51141602 54.36666016 -79.61376953 53.76269531 C-75.49899533 50.98774017 -71.40621124 48.18089178 -67.3125 45.375 C-65.72919446 44.29162605 -64.14586144 43.20829226 -62.5625 42.125 C-56.35261495 37.8733755 -50.15153067 33.6089824 -43.95166016 29.34277344 C-39.97352456 26.60575245 -35.9941423 23.8705437 -32.01464844 21.13549805 C-28.5930589 18.78368067 -25.17257726 16.43027698 -21.75390625 14.07421875 C-1.32587283 0 -1.32587283 0 0 0 Z " fill="#FBFED3" transform="translate(399,153)"/>
<path d="M0 0 C10.05125678 5.58403154 10.05125678 5.58403154 14.32421875 8.8203125 C20.02162782 13.04950114 25.88769652 16.97342844 31.8125 20.875 C39.42708228 25.91909515 46.94740376 31.03577068 54.34375 36.39453125 C59.04080011 39.77153909 63.83941975 43.00040473 68.625 46.25 C71.45678888 48.17908855 74.2880089 50.10900966 77.11914062 52.0390625 C79.05879766 53.35934431 81.00024132 54.67700474 82.94335938 55.9921875 C85.76062961 57.90181742 88.56863569 59.82439143 91.375 61.75 C92.67751709 62.62640137 92.67751709 62.62640137 94.00634766 63.52050781 C94.7957373 64.06545898 95.58512695 64.61041016 96.3984375 65.171875 C97.09630371 65.6472168 97.79416992 66.12255859 98.51318359 66.61230469 C99.00383301 67.07024414 99.49448242 67.52818359 100 68 C100 68.99 100 69.98 100 71 C98.01131487 72.54256619 96.06687078 73.86194412 93.9375 75.1875 C92.55040714 76.08073575 91.16510572 76.97675725 89.78125 77.875 C89.01683594 78.37 88.25242187 78.865 87.46484375 79.375 C82.89347529 82.38877065 78.42213615 85.5467816 73.9375 88.6875 C66.32310009 94.00550352 58.68250782 99.28087121 51 104.5 C43.34246606 109.70392871 35.72080722 114.95637029 28.125 120.25 C27.17028809 120.91515625 26.21557617 121.5803125 25.23193359 122.265625 C23.83322021 123.24015625 23.83322021 123.24015625 22.40625 124.234375 C17.48427952 127.66367403 12.55999423 131.08946357 7.625 134.5 C6.95871582 134.9630957 6.29243164 135.42619141 5.60595703 135.90332031 C1.11540944 139 1.11540944 139 0 139 C0 93.13 0 47.26 0 0 Z " fill="#FBFED3" transform="translate(113,153)"/>
<path d="M0 0 C0.90154816 0.00565979 1.80309631 0.01131958 2.73196411 0.01715088 C5.59530013 0.03943945 8.45735839 0.08962111 11.3203125 0.140625 C13.26821102 0.16069975 15.21612927 0.17894881 17.1640625 0.1953125 C21.9249672 0.23927953 26.68492364 0.30825437 31.4453125 0.390625 C28.38078002 3.57295882 25.37523352 6.31357107 21.70703125 8.7734375 C20.81258301 9.37768555 19.91813477 9.98193359 18.99658203 10.60449219 C18.05153809 11.23516602 17.10649414 11.86583984 16.1328125 12.515625 C14.14435201 13.85650507 12.15607187 15.19765262 10.16796875 16.5390625 C9.19230957 17.19487305 8.21665039 17.85068359 7.21142578 18.52636719 C3.48107403 21.04048598 -0.2267426 23.58638507 -3.9296875 26.140625 C-5.20829327 27.02089153 -6.48693872 27.90110042 -7.765625 28.78125 C-8.38791992 29.20986328 -9.01021484 29.63847656 -9.65136719 30.08007812 C-12.95115706 32.35217561 -16.25305651 34.62120413 -19.5546875 36.890625 C-20.88803032 37.80727786 -22.22136367 38.72394451 -23.5546875 39.640625 C-79.5546875 78.140625 -79.5546875 78.140625 -81.55297852 79.5144043 C-82.89206541 80.43505716 -84.23109497 81.35579341 -85.57006836 82.27661133 C-88.81491752 84.50796192 -92.06060552 86.73806448 -95.30859375 88.96484375 C-96.57818235 89.83585391 -97.84771291 90.70694867 -99.1171875 91.578125 C-99.75261475 92.01390869 -100.38804199 92.44969238 -101.04272461 92.89868164 C-105.18588692 95.74575459 -109.31182669 98.61644021 -113.4296875 101.5 C-114.45247803 102.21518799 -115.47526855 102.93037598 -116.52905273 103.66723633 C-118.54599008 105.07856627 -120.56120653 106.49235964 -122.57446289 107.90893555 C-127.45642729 111.32331815 -132.31642014 114.54990026 -137.5546875 117.390625 C-136.08594318 113.44115237 -134.23231855 109.8897188 -132.140625 106.234375 C-131.80729156 105.65079224 -131.47395813 105.06720947 -131.13052368 104.46594238 C-130.4243412 103.2312895 -129.71657572 101.99754086 -129.00732422 100.76464844 C-127.95008432 98.92609532 -126.89845565 97.08442743 -125.84765625 95.2421875 C-124.11512167 92.21058284 -122.35841315 89.19378768 -120.59313965 86.18115234 C-119.56474752 84.40797077 -118.56331276 82.62143289 -117.56347656 80.83203125 C-113.42765444 73.67174822 -109.47709397 68.89813393 -102.5546875 64.390625 C-101.14558543 63.40269725 -99.73672919 62.41441876 -98.328125 61.42578125 C-96.86377131 60.43224928 -95.39754609 59.44147143 -93.9296875 58.453125 C-92.25592509 57.3172683 -90.58277522 56.18050857 -88.91015625 55.04296875 C-87.60183838 54.15327393 -87.60183838 54.15327393 -86.26708984 53.24560547 C-81.57035794 50.03356505 -76.90790465 46.7724739 -72.2421875 43.515625 C-63.81880226 37.64118172 -55.3543745 31.83117522 -46.86010742 26.05981445 C-38.91356269 20.65313051 -31.02052986 15.1712267 -23.140625 9.66796875 C-22.23570312 9.03632813 -21.33078125 8.4046875 -20.3984375 7.75390625 C-19.60630859 7.20001221 -18.81417969 6.64611816 -17.99804688 6.07543945 C-16.78858398 5.2414563 -16.78858398 5.2414563 -15.5546875 4.390625 C-14.66185059 3.66931396 -13.76901367 2.94800293 -12.84912109 2.20483398 C-8.42800823 -0.2298251 -4.9593491 -0.11824867 0 0 Z " fill="#DCDF1E" transform="translate(223.5546875,221.609375)"/>
<path d="M0 0 C0.99 0.495 0.99 0.495 2 1 C1.63874023 1.61705811 1.27748047 2.23411621 0.90527344 2.86987305 C-0.18635581 4.73540054 -1.27700067 6.60150421 -2.36694336 8.46801758 C-3.63469335 10.63550353 -4.90641986 12.80066797 -6.18188477 14.96362305 C-9.26633074 20.21435612 -12.28420108 25.46901456 -15.07421875 30.8828125 C-20.89140458 42.0301181 -26.38095378 49.4104881 -37.22314453 55.92822266 C-39.86160237 57.51970794 -42.38974457 59.26807941 -44.9375 61 C-45.90042969 61.63292969 -46.86335938 62.26585937 -47.85546875 62.91796875 C-51.51603926 65.34167568 -55.13523527 67.82120798 -58.75 70.3125 C-59.42756348 70.77930176 -60.10512695 71.24610352 -60.80322266 71.72705078 C-62.18522706 72.67960588 -63.56706221 73.6324066 -64.94873047 74.58544922 C-68.23471291 76.8514552 -71.5234404 79.11346363 -74.8125 81.375 C-75.46444336 81.82335205 -76.11638672 82.2717041 -76.78808594 82.73364258 C-82.02009886 86.33017548 -87.25931016 89.91612609 -92.5 93.5 C-98.5860349 97.66273179 -104.6710992 101.82685469 -110.75 106 C-111.38099609 106.43248047 -112.01199219 106.86496094 -112.66210938 107.31054688 C-113.56413086 107.93026367 -113.56413086 107.93026367 -114.484375 108.5625 C-115.31487617 109.1234008 -115.31487617 109.1234008 -116.16215515 109.69563293 C-117.98921738 110.94939055 -117.98921738 110.94939055 -119.52754211 112.31462097 C-124.49537736 116.43715187 -128.56971771 116.67253411 -134.87109375 116.48828125 C-136.25458763 116.47766914 -136.25458763 116.47766914 -137.66603088 116.46684265 C-140.59070475 116.43901755 -143.51341206 116.37630266 -146.4375 116.3125 C-148.42900867 116.28740171 -150.42054756 116.26459123 -152.41210938 116.24414062 C-157.27548882 116.18922996 -162.13741185 116.10304109 -167 116 C-163.70533483 112.60065036 -160.21231121 109.9995921 -156.25 107.4375 C-154.89905886 106.55051509 -153.54882141 105.66245767 -152.19921875 104.7734375 C-151.50489746 104.31678711 -150.81057617 103.86013672 -150.09521484 103.38964844 C-146.72369202 101.15349044 -143.39215738 98.86035744 -140.0625 96.5625 C-139.39959961 96.10544678 -138.73669922 95.64839355 -138.05371094 95.17749023 C-136.70763123 94.24900783 -135.3617654 93.32021529 -134.01611328 92.39111328 C-130.68051444 90.08955816 -127.34002759 87.795121 -124 85.5 C-122.66664292 84.58336788 -121.33330959 83.6667012 -120 82.75 C-80 55.25 -80 55.25 -78.00170898 53.8762207 C-76.66262209 52.95556784 -75.32359253 52.03483159 -73.98461914 51.11401367 C-70.73976998 48.88266308 -67.49408198 46.65256052 -64.24609375 44.42578125 C-56.43293959 39.0662281 -48.64744478 33.66843757 -40.875 28.25 C-32.04549237 22.09518604 -23.17608183 16.00203236 -14.26904297 9.95996094 C-9.46738505 6.69951987 -4.70693862 3.39590272 0 0 Z " fill="#DCDF1D" transform="translate(424,106)"/>
<path d="M0 0 C44.12784601 -2.70085686 44.12784601 -2.70085686 56.52905273 7.96972656 C57.96734035 9.28876694 59.38762649 10.62771029 60.7890625 11.98583984 C64.77190965 15.61420656 69.31860002 18.4249228 73.8125 21.375 C75.66143512 22.62640345 77.50777988 23.88164234 79.3515625 25.140625 C80.74036621 26.08711914 80.74036621 26.08711914 82.15722656 27.05273438 C87.01937564 30.38324803 91.85350536 33.75380785 96.6875 37.125 C103.75072102 42.0507142 110.82788255 46.95396991 117.9375 51.8125 C118.70288086 52.33739014 119.46826172 52.86228027 120.25683594 53.40307617 C124.01671673 55.97840886 127.7901184 58.52873055 131.59375 61.0390625 C132.32601807 61.52785889 133.05828613 62.01665527 133.81274414 62.52026367 C135.17805468 63.43094134 136.54922205 64.33293166 137.92749023 65.22387695 C142.07594232 68.00684936 144.56513506 70.61236117 147 75 C147 75.66 147 76.32 147 77 C147.66 77 148.32 77 149 77 C150.4606285 79.64738916 151 80.89448334 151 84 C151.66 84 152.32 84 153 84 C153.99 87.465 153.99 87.465 155 91 C155.66 91 156.32 91 157 91 C157.33 92.65 157.66 94.3 158 96 C158.66 96 159.32 96 160 96 C160.99 99.465 160.99 99.465 162 103 C162.66 103 163.32 103 164 103 C164.99 106.465 164.99 106.465 166 110 C166.66 110 167.32 110 168 110 C168 110.99 168 111.98 168 113 C168.66 113 169.32 113 170 113 C170.33 114.32 170.66 115.64 171 117 C163.66934183 112.39200662 156.4519334 107.64847673 149.3125 102.75 C147.88139893 101.77111816 147.88139893 101.77111816 146.42138672 100.77246094 C143.61279976 98.85042408 140.80602537 96.92577413 138 95 C137.23896973 94.47792969 136.47793945 93.95585937 135.69384766 93.41796875 C131.76113504 90.71917313 127.83140939 88.01606654 123.90332031 85.31054688 C120.60353044 83.03844939 117.30163099 80.76942087 114 78.5 C112.66665718 77.58334714 111.33332383 76.66668049 110 75.75 C109.01 75.069375 109.01 75.069375 108 74.375 C106 73 104 71.625 102 70.25 C101.34056396 69.79665283 100.68112793 69.34330566 100.00170898 68.8762207 C98.66262209 67.95556784 97.32359253 67.03483159 95.98461914 66.11401367 C92.73976998 63.88266308 89.49408198 61.65256052 86.24609375 59.42578125 C78.43293873 54.06622751 70.64752861 48.66831807 62.875 43.25 C52.46595334 35.99625488 41.99276549 28.8400506 31.50244141 21.70458984 C22.60087548 15.64110367 13.72516743 9.53974781 4.91796875 3.33984375 C3.293484 2.20502039 1.64879846 1.09919898 0 0 Z " fill="#FB8E7D" transform="translate(255,222)"/>
<path d="M0 0 C4.20386756 1.45785499 7.36523175 3.55135149 10.9375 6.1875 C17.16745877 10.72851201 23.49748206 15.10643773 29.875 19.4375 C30.82318604 20.08195068 31.77137207 20.72640137 32.74829102 21.39038086 C34.62504423 22.66586453 36.50191341 23.94117759 38.37890625 25.21630859 C43.97695903 29.02586277 49.55100959 32.87033227 55.12744141 36.71142578 C56.9938055 37.99573734 58.86185805 39.27755351 60.73046875 40.55859375 C68.55174943 45.92290657 76.344767 51.32631111 84.125 56.75 C93.67817169 63.40731212 103.28220169 69.98661614 112.91015625 76.53515625 C119.32193808 80.89631778 125.71051677 85.29090487 132.09667969 89.68945312 C134.72680482 91.50044745 137.35829518 93.3094521 139.98999023 95.11816406 C141.31794983 96.03110604 142.64559263 96.94450902 143.97290039 97.85839844 C147.46093021 100.25930049 150.95471495 102.65122711 154.45703125 105.03125 C155.18599609 105.52818359 155.91496094 106.02511719 156.66601562 106.53710938 C158.06266091 107.48896316 159.4610134 108.4383184 160.86132812 109.38476562 C163.82702022 111.40944999 166.51801331 113.40831482 169 116 C163.33028918 116.30110808 157.6654105 116.51636558 151.98950195 116.65917969 C150.06777762 116.7188078 148.14657996 116.80015283 146.22680664 116.90527344 C131.44331969 117.69331403 123.00203251 115.07723725 111.72439575 105.44818115 C109.50578865 103.58495168 107.15953038 101.97093836 104.74609375 100.37109375 C104.02615234 99.87996094 103.30621094 99.38882813 102.56445312 98.8828125 C101.86255859 98.40585938 101.16066406 97.92890625 100.4375 97.4375 C98.83192172 96.34260852 97.22645473 95.24755382 95.62109375 94.15234375 C94.84362793 93.62237793 94.06616211 93.09241211 93.26513672 92.54638672 C89.83741449 90.20631423 86.41848583 87.85353564 83 85.5 C75.64054381 80.43599324 68.26889437 75.38992383 60.89453125 70.34765625 C57.55725981 68.06574403 54.22145952 65.78170259 50.88671875 63.49609375 C50.04729736 62.92101074 49.20787598 62.34592773 48.34301758 61.75341797 C46.75531867 60.66563455 45.16789385 59.57745092 43.58081055 58.48876953 C42.85031494 57.98845215 42.11981934 57.48813477 41.3671875 56.97265625 C40.65232178 56.47983154 39.93745605 55.98700684 39.20092773 55.47924805 C37.68625555 54.46123377 36.1501761 53.47459307 34.59790039 52.51489258 C29.53825221 49.34827126 26.61249382 46.77988726 23.6875 41.5625 C23.04167969 40.43328125 22.39585938 39.3040625 21.73046875 38.140625 C21.15941406 37.10421875 20.58835937 36.0678125 20 35 C19.16808531 33.60332069 18.33510599 32.20727351 17.5 30.8125 C16 28 16 28 16 26 C15.34 26 14.68 26 14 26 C13.34 23.69 12.68 21.38 12 19 C11.34 19 10.68 19 10 19 C9.34 16.69 8.68 14.38 8 12 C7.34 12 6.68 12 6 12 C5.34 9.69 4.68 7.38 4 5 C3.34 5 2.68 5 2 5 C1.34 3.35 0.68 1.7 0 0 Z " fill="#FC8E7D" transform="translate(86,106)"/>
<path d="M0 0 C8.58 0 17.16 0 26 0 C26 0.99 26 1.98 26 3 C26.99 3 27.98 3 29 3 C29 3.99 29 4.98 29 6 C29.99 6 30.98 6 32 6 C32 10.29 32 14.58 32 19 C31.01 19 30.02 19 29 19 C29 19.99 29 20.98 29 22 C26.69 22 24.38 22 22 22 C22 22.99 22 23.98 22 25 C24.31 25 26.62 25 29 25 C29 25.99 29 26.98 29 28 C29.99 28 30.98 28 32 28 C32 33.28 32 38.56 32 44 C27.71 44 23.42 44 19 44 C19 38.72 19 33.44 19 28 C18.01 28 17.02 28 16 28 C16 27.01 16 26.02 16 25 C15.01 25 14.02 25 13 25 C13 31.27 13 37.54 13 44 C8.71 44 4.42 44 0 44 C0 29.48 0 14.96 0 0 Z " fill="#F4F7CD" transform="translate(230,366)"/>
<path d="M0 0 C5.61 0 11.22 0 17 0 C17 0.99 17 1.98 17 3 C17.99 3 18.98 3 20 3 C20 16.53 20 30.06 20 44 C15.71 44 11.42 44 7 44 C7 38.39 7 32.78 7 27 C6.01 27.99 5.02 28.98 4 30 C3.34 30 2.68 30 2 30 C2 34.62 2 39.24 2 44 C-2.29 44 -6.58 44 -11 44 C-11 33.11 -11 22.22 -11 11 C-10.01 11 -9.02 11 -8 11 C-8 10.01 -8 9.02 -8 8 C-7.01 8 -6.02 8 -5 8 C-5 7.34 -5 6.68 -5 6 C-3.625 4.375 -3.625 4.375 -2 3 C-1.34 3 -0.68 3 0 3 C0 2.01 0 1.02 0 0 Z " fill="#F6F8CF" transform="translate(204,366)"/>
<path d="M0 0 C4.29 0 8.58 0 13 0 C13 9.9 13 19.8 13 30 C13.66 30 14.32 30 15 30 C15.33 29.01 15.66 28.02 16 27 C16.66 27 17.32 27 18 27 C18 18.09 18 9.18 18 0 C22.29 0 26.58 0 31 0 C31 12.87 31 25.74 31 39 C30.01 39 29.02 39 28 39 C28 39.99 28 40.98 28 42 C27.01 42 26.02 42 25 42 C25 42.99 25 43.98 25 45 C17.74 45 10.48 45 3 45 C2.505 43.515 2.505 43.515 2 42 C1.34 42 0.68 42 0 42 C0 40.02 0 38.04 0 36 C3.96 36 7.92 36 12 36 C12.33 36.99 12.66 37.98 13 39 C13.66 39 14.32 39 15 39 C15 39.99 15 40.98 15 42 C16.32 42 17.64 42 19 42 C19 38.04 19 34.08 19 30 C18.34 30 17.68 30 17 30 C17 30.99 17 31.98 17 33 C14.72975032 33.08097324 12.45867925 33.13917704 10.1875 33.1875 C8.29064453 33.23970703 8.29064453 33.23970703 6.35546875 33.29296875 C3 33 3 33 1.30859375 31.91015625 C-0.67049295 29.02128044 -0.33685341 26.61141924 -0.29296875 23.14453125 C-0.28872391 22.48289474 -0.28447906 21.82125824 -0.28010559 21.13957214 C-0.26333693 19.0301309 -0.22569099 16.92165154 -0.1875 14.8125 C-0.17245068 13.38087319 -0.1587627 11.94923138 -0.14648438 10.51757812 C-0.11599284 7.01105173 -0.05727659 3.50660006 0 0 Z " fill="#F3F6CD" transform="translate(326,377)"/>
<path d="M0 0 C4.29 0 8.58 0 13 0 C13 13.53 13 27.06 13 41 C13.99 41 14.98 41 16 41 C16 40.01 16 39.02 16 38 C16.99 38 17.98 38 19 38 C19 25.46 19 12.92 19 0 C22.96 0 26.92 0 31 0 C31 12.54 31 25.08 31 38 C30.34 38 29.68 38 29 38 C29 38.99 29 39.98 29 41 C28.01 41 27.02 41 26 41 C26 41.99 26 42.98 26 44 C19.4 44 12.8 44 6 44 C6 43.01 6 42.02 6 41 C5.01 41 4.02 41 3 41 C3 40.01 3 39.02 3 38 C2.01 38 1.02 38 0 38 C0 25.46 0 12.92 0 0 Z " fill="#F9FCD1" transform="translate(155,366)"/>
<path d="M0 0 C11.88 0 23.76 0 36 0 C36 4.29 36 8.58 36 13 C34.02 13 32.04 13 30 13 C30 12.01 30 11.02 30 10 C29.01 10 28.02 10 27 10 C27 7.69 27 5.38 27 3 C26.34 3 25.68 3 25 3 C25 16.53 25 30.06 25 44 C20.71 44 16.42 44 12 44 C12 30.47 12 16.94 12 3 C11.01 3 10.02 3 9 3 C9 5.31 9 7.62 9 10 C8.01 10 7.02 10 6 10 C6 10.99 6 11.98 6 13 C4.33388095 13.042721 2.66617115 13.04063832 1 13 C0.67 12.67 0.34 12.34 0 12 C0 8.04 0 4.08 0 0 Z " fill="#F2F4CB" transform="translate(266,366)"/>
<path d="M0 0 C4.29 0 8.58 0 13 0 C13 14.85 13 29.7 13 45 C8.71 45 4.42 45 0 45 C0 30.15 0 15.3 0 0 Z " fill="#F7FAD0" transform="translate(306,365)"/>
<path d="M0 0 C0.99 0 1.98 0 3 0 C2.690625 0.763125 2.38125 1.52625 2.0625 2.3125 C1.32106407 4.18789677 0.63771783 6.08684652 0 8 C-0.66 8 -1.32 8 -2 8 C-2.33 9.98 -2.66 11.96 -3 14 C-3.66 14 -4.32 14 -5 14 C-5 16.64 -5 19.28 -5 22 C-4.34 22 -3.68 22 -3 22 C-2.67 23.98 -2.34 25.96 -2 28 C-1.34 28 -0.68 28 0 28 C3 33.75 3 33.75 3 36 C2.01 36 1.02 36 0 36 C-2.10770759 33.11165997 -3 31.61537605 -3 28 C-3.66 28 -4.32 28 -5 28 C-5.33 26.02 -5.66 24.04 -6 22 C-6.66 22 -7.32 22 -8 22 C-8.79953138 18.71303767 -9.09658936 17.28976808 -8 14 C-7.34 14 -6.68 14 -6 14 C-5.67 12.02 -5.34 10.04 -5 8 C-4.34 8 -3.68 8 -3 8 C-2.814375 6.8553125 -2.814375 6.8553125 -2.625 5.6875 C-2 3 -2 3 0 0 Z " fill="#E1E4BE" transform="translate(148,368)"/>
<path d="M0 0 C0.99 0 1.98 0 3 0 C4.25664978 2.90600261 5 4.79604584 5 8 C5.66 8 6.32 8 7 8 C7.33 9.98 7.66 11.96 8 14 C8.66 14 9.32 14 10 14 C10.79953138 17.28696233 11.09658936 18.71023192 10 22 C9.34 22 8.68 22 8 22 C7.67 23.98 7.34 25.96 7 28 C6.34 28 5.68 28 5 28 C4.7834375 29.1446875 4.7834375 29.1446875 4.5625 30.3125 C4 33 4 33 3 36 C2.01 36 1.02 36 0 36 C0.52268466 33.23723823 1.10869587 30.6739124 2 28 C2.66 28 3.32 28 4 28 C4.33 26.02 4.66 24.04 5 22 C5.66 22 6.32 22 7 22 C7 19.36 7 16.72 7 14 C6.34 14 5.68 14 5 14 C4.67 12.02 4.34 10.04 4 8 C3.34 8 2.68 8 2 8 C0.74335022 5.09399739 0 3.20395416 0 0 Z " fill="#E4E6C0" transform="translate(362,368)"/>
<path d="M0 0 C0.99 0 1.98 0 3 0 C3 0.99 3 1.98 3 3 C3.99 3 4.98 3 6 3 C6 7.29 6 11.58 6 16 C5.01 16 4.02 16 3 16 C3 16.99 3 17.98 3 19 C2.01 19 1.02 19 0 19 C0 12.73 0 6.46 0 0 Z " fill="#2F302C" transform="translate(243,369)"/>
<path d="M0 0 C0.99 0 1.98 0 3 0 C3 6.27 3 12.54 3 19 C2.01 19 1.02 19 0 19 C0 19.99 0 20.98 0 22 C-0.66 22 -1.32 22 -2 22 C-2 15.73 -2 9.46 -2 3 C-1.34 3 -0.68 3 0 3 C0 2.01 0 1.02 0 0 Z " fill="#212120" transform="translate(208,369)"/>
<path d="M0 0 C0.99 0 1.98 0 3 0 C4.25664978 2.90600261 5 4.79604584 5 8 C5.66 8 6.32 8 7 8 C6.67 9.98 6.34 11.96 6 14 C4 11 4 11 4 8 C3.34 8 2.68 8 2 8 C0.74335022 5.09399739 0 3.20395416 0 0 Z " fill="#DCDFBA" transform="translate(362,368)"/>
<path d="M0 0 C0.99 0 1.98 0 3 0 C1.87548273 2.9719385 0.77706209 5.33440687 -1 8 C-1.66 7.67 -2.32 7.34 -3 7 C-1.125 2.25 -1.125 2.25 0 0 Z " fill="#DCDFBA" transform="translate(148,368)"/>
<path d="M0 0 C0.33 0.66 0.66 1.32 1 2 C1.66 2.33 2.32 2.66 3 3 C2.34 4.65 1.68 6.3 1 8 C0.01 8 -0.98 8 -2 8 C-1.47731534 5.23723823 -0.89130413 2.6739124 0 0 Z " fill="#D9DBB7" transform="translate(364,396)"/>
<path d="M0 0 C0.66 0 1.32 0 2 0 C2 0.99 2 1.98 2 3 C2.66 3 3.32 3 4 3 C4.33 4.65 4.66 6.3 5 8 C4.34 8 3.68 8 3 8 C3 7.34 3 6.68 3 6 C2.34 6 1.68 6 1 6 C0.67 4.02 0.34 2.04 0 0 Z " fill="#EAECC5" transform="translate(368,379)"/>
</svg>
